<svg xmlns="http://www.w3.org/2000/svg" width="36" height="36" viewBox="0 0 36 36">
  <g id="그룹_89634" data-name="그룹 89634" transform="translate(-131 -336)">
    <g id="그룹_89625" data-name="그룹 89625" transform="translate(137 336.058)">
      <path id="패스_67342" data-name="패스 67342" d="M9.482,31.025a16.52,16.52,0,0,1-1.976-.1C3.766,30.3,3.189,25.8,3.4,23.485l-.029-4.152a9.719,9.719,0,0,1-2.92-1.887,1.4,1.4,0,0,1-.429-1.294c.222-1.119,1.848-1.922,2.345-2.143a10.51,10.51,0,0,1,1.306-.876c1.2-.711,2.068-1.225,3.639-6.187C9.555-.128,18.758,0,18.846,0a.612.612,0,0,1-.027,1.224c-.08,0-8.375-.1-10.335,6.091-1.633,5.157-2.6,5.937-4.183,6.871a9.133,9.133,0,0,0-1.222.825.624.624,0,0,1-.147.089c-.75.321-1.634.929-1.7,1.289-.005.025-.016.079.1.2a9.064,9.064,0,0,0,2.867,1.758.613.613,0,0,1,.4.571l.032,4.592q0,.032,0,.063c-.005.055-.484,5.546,3.059,6.14.044.006,6.717.811,11.436-2.767a.612.612,0,1,1,.74.976,17.483,17.483,0,0,1-10.38,3.106" transform="translate(0.001 0)" fill="#231815"/>
      <path id="패스_67343" data-name="패스 67343" d="M48.242,102.558a.613.613,0,0,1-.594-.464A49.761,49.761,0,0,0,45.9,96.855a.612.612,0,1,1,1.137-.455,49.983,49.983,0,0,1,1.8,5.4.613.613,0,0,1-.595.761" transform="translate(-31.816 -66.616)" fill="#231815"/>
      <path id="패스_67344" data-name="패스 67344" d="M25.434,48.2a3.365,3.365,0,0,1-1.819-.4.612.612,0,0,1,.666-1.028c.047.026,1.106.577,3.616-.26a.613.613,0,0,1,.388,1.162,9.075,9.075,0,0,1-2.851.527" transform="translate(-16.195 -32.249)" fill="#231815"/>
      <path id="패스_67345" data-name="패스 67345" d="M26.543,40.921a.612.612,0,0,1-.607-.536,12.028,12.028,0,0,1,.306-3.316.612.612,0,0,1,1.194.275,11.044,11.044,0,0,0-.285,2.889.612.612,0,0,1-.532.683.591.591,0,0,1-.077,0" transform="translate(-17.971 -25.39)" fill="#231815"/>
      <path id="패스_67346" data-name="패스 67346" d="M14.144,71.18a4.648,4.648,0,0,1-1.5-.207.612.612,0,0,1,.418-1.151c.093.032,2.032.664,4.947-1.059a.613.613,0,0,1,.623,1.055,8.837,8.837,0,0,1-4.493,1.362" transform="translate(-8.497 -47.649)" fill="#231815"/>
      <path id="패스_67347" data-name="패스 67347" d="M26.571,72.992c-.431,0-.693-.024-.747-.03a.612.612,0,1,1,.126-1.218c.1.008,7.628.653,14.324-6.96a.613.613,0,0,1,.92.809c-5.962,6.778-12.446,7.4-14.622,7.4" transform="translate(-17.535 -44.803)" fill="#46e088"/>
      <path id="패스_67348" data-name="패스 67348" d="M67.832,68.426a.613.613,0,0,1-.612-.612V65.078H64.484a.612.612,0,0,1,0-1.225h3.348a.612.612,0,0,1,.612.612v3.349a.612.612,0,0,1-.612.612" transform="translate(-44.315 -44.302)" fill="#46e088"/>
      <rect id="사각형_31049" data-name="사각형 31049" width="24.13" height="35.942" transform="translate(0 0)" fill="none"/>
    </g>
    <rect id="사각형_31065" data-name="사각형 31065" width="36" height="36" transform="translate(131 336)" fill="none"/>
  </g>
</svg>
