<svg xmlns="http://www.w3.org/2000/svg" width="36" height="36" viewBox="0 0 36 36">
  <g id="그룹_89647" data-name="그룹 89647" transform="translate(-21 -514)">
    <rect id="사각형_31070" data-name="사각형 31070" width="36" height="36" transform="translate(21 514)" fill="none"/>
    <g id="_055.ᄋ_치_GPS" data-name="055.위치,GPS" transform="translate(26 514)">
      <path id="패스_66405" data-name="패스 66405" d="M17.041,27.8A13.411,13.411,0,1,0,3.63,14.391,13.411,13.411,0,0,0,17.041,27.8Z" transform="translate(-3.63 -0.979)" fill="#f57c75"/>
      <path id="패스_66406" data-name="패스 66406" d="M25.363,10a27.351,27.351,0,0,1-4.2,12A27.35,27.35,0,0,1,12,30.8V10Z" transform="translate(1.395 4.436)" fill="#f57c75"/>
      <path id="패스_66407" data-name="패스 66407" d="M3.66,10A27.35,27.35,0,0,0,17.007,30.8V10Z" transform="translate(-3.612 4.436)" fill="#f57c75"/>
      <path id="패스_66408" data-name="패스 66408" d="M13.811,15.6a4.8,4.8,0,1,0-4.8-4.8A4.8,4.8,0,0,0,13.811,15.6Z" transform="translate(-0.4 2.035)" fill="#fff"/>
    </g>
  </g>
</svg>
