<svg xmlns="http://www.w3.org/2000/svg" xmlns:xlink="http://www.w3.org/1999/xlink" width="36" height="36" viewBox="0 0 36 36">
  <defs>
    <clipPath id="clip-path">
      <rect id="사각형_31054" data-name="사각형 31054" width="34.059" height="32.726" fill="none"/>
    </clipPath>
  </defs>
  <g id="그룹_89633" data-name="그룹 89633" transform="translate(-221 -336)">
    <g id="그룹_89629" data-name="그룹 89629" transform="translate(222 338)">
      <g id="그룹_89628" data-name="그룹 89628" clip-path="url(#clip-path)">
        <path id="패스_67379" data-name="패스 67379" d="M15.484,62.354A21.511,21.511,0,0,0,2,62.547V69.43a4.844,4.844,0,0,0,4.843,4.844h23.12a4.844,4.844,0,0,0,4.844-4.844v-6.54c-5.341,1.809-11.34,1.877-19.323-.537" transform="translate(-1.374 -42.173)" fill="#46e088"/>
        <path id="패스_67380" data-name="패스 67380" d="M28.59,73.526H5.469A5.475,5.475,0,0,1,0,68.057V61.173a.626.626,0,0,1,.415-.589,21.447,21.447,0,0,1,7.161-1.213,23.2,23.2,0,0,1,6.715,1.01,37.99,37.99,0,0,0,11,1.83,24.365,24.365,0,0,0,7.942-1.287.625.625,0,0,1,.826.592v6.54a5.475,5.475,0,0,1-5.469,5.469M1.251,61.619v6.437a4.222,4.222,0,0,0,4.218,4.218H28.59a4.222,4.222,0,0,0,4.218-4.218V62.374c-5.6,1.694-11.5,1.437-18.879-.8a21.943,21.943,0,0,0-6.352-.957,20.305,20.305,0,0,0-6.325,1" transform="translate(0 -40.8)" fill="#46e088"/>
        <path id="패스_67381" data-name="패스 67381" d="M30.6,67.663a.625.625,0,0,1-.5-.248l-.1-.133a.626.626,0,1,1,1.008-.741l.088.118a.626.626,0,0,1-.5,1" transform="translate(-20.537 -45.552)" fill="#231815"/>
        <path id="패스_67382" data-name="패스 67382" d="M42.224,75.571h-.016c-.107,0-.213-.007-.319-.013a.626.626,0,0,1,.069-1.249c.094.005.187.009.281.011a.626.626,0,0,1-.015,1.251m2.094-.151a.626.626,0,0,1-.106-1.242c.093-.016.186-.033.279-.052a.626.626,0,0,1,.247,1.227c-.1.021-.208.04-.312.059a.666.666,0,0,1-.108.009m-4.472-.176a.619.619,0,0,1-.155-.019q-.153-.039-.307-.083a.626.626,0,1,1,.343-1.2c.091.026.182.05.274.074a.625.625,0,0,1-.155,1.231m6.777-.494a.626.626,0,0,1-.241-1.2c.087-.037.173-.074.259-.113a.626.626,0,0,1,.515,1.141c-.1.043-.194.086-.292.127a.625.625,0,0,1-.241.048M37.6,74.4a.621.621,0,0,1-.283-.068q-.143-.073-.283-.15a.626.626,0,1,1,.6-1.1c.082.045.165.089.249.131A.626.626,0,0,1,37.6,74.4m-2-1.326a.621.621,0,0,1-.4-.146c-.082-.069-.163-.138-.243-.209a.626.626,0,1,1,.832-.935c.07.063.141.124.213.184a.626.626,0,0,1-.4,1.105" transform="translate(-23.878 -49.219)" fill="#231815"/>
        <path id="패스_67383" data-name="패스 67383" d="M78.051,74.921a.626.626,0,0,1-.363-1.135l.12-.087a.626.626,0,1,1,.739,1.01l-.134.1a.621.621,0,0,1-.362.116" transform="translate(-53.206 -50.562)" fill="#231815"/>
        <path id="패스_67384" data-name="패스 67384" d="M17.97,17.9a6.675,6.675,0,0,1-3.819-1.3,3.691,3.691,0,0,1-1.61-4.06l-.434-.736A47.8,47.8,0,0,1,7.082,5.67C5.493,3.19,4.913,1.636,6.391.528A2.447,2.447,0,0,1,7.848,0a2.545,2.545,0,0,1,2.183,1.5l9.078,15.4a.626.626,0,0,1-.408.929,3.748,3.748,0,0,1-.731.061M7.848,1.251a1.246,1.246,0,0,0-.707.278c-.388.291-.828.621.994,3.466a48.051,48.051,0,0,0,4.922,5.99.612.612,0,0,1,.09.118l.618,1.048a.625.625,0,0,1,.036.564,2.375,2.375,0,0,0,1.072,2.861,5.642,5.642,0,0,0,2.614,1.042L8.954,2.14c-.239-.405-.625-.889-1.105-.889" transform="translate(-3.806)" fill="#231815"/>
        <path id="패스_67385" data-name="패스 67385" d="M27.043,32.8a.626.626,0,0,1-.318-1.165l1.467-.865a.626.626,0,0,1,.635,1.078l-1.467.865a.627.627,0,0,1-.317.087" transform="translate(-18.153 -21.085)" fill="#231815"/>
        <path id="패스_67386" data-name="패스 67386" d="M65.844,7.947A3.159,3.159,0,1,1,69,4.788a3.163,3.163,0,0,1-3.159,3.159m0-5.067a1.908,1.908,0,1,0,1.908,1.908A1.91,1.91,0,0,0,65.844,2.88" transform="translate(-43.077 -1.119)" fill="#231815"/>
        <path id="패스_67387" data-name="패스 67387" d="M79.51,27.075a.625.625,0,0,1-.626-.626V10.355a.626.626,0,1,1,1.251,0v8.171a2.619,2.619,0,0,1,2.683,2.559,6.863,6.863,0,0,1-2.974,5.894.628.628,0,0,1-.334.1m.626-7.3v5.29a5.494,5.494,0,0,0,1.432-3.957,1.347,1.347,0,0,0-1.432-1.333" transform="translate(-54.209 -6.686)" fill="#231815"/>
        <path id="패스_67388" data-name="패스 67388" d="M91.846,20.67a3.159,3.159,0,1,1,2.234-.925,3.139,3.139,0,0,1-2.234.925m0-5.067a1.907,1.907,0,1,0,1.349.559,1.9,1.9,0,0,0-1.349-.559" transform="translate(-60.947 -9.863)" fill="#231815"/>
        <path id="패스_67389" data-name="패스 67389" d="M55.084,29.356a.636.636,0,0,1-.174-.024.626.626,0,0,1-.436-.463,6.882,6.882,0,0,1,2.084-6.289,2.756,2.756,0,0,1,1.144-.631,2.616,2.616,0,0,1,2.544.736l5.777-5.777a.626.626,0,0,1,.885.885L55.527,29.173a.625.625,0,0,1-.442.183m3.233-6.24a1.344,1.344,0,0,0-.9.371,5.525,5.525,0,0,0-1.8,3.823l3.739-3.739a1.57,1.57,0,0,0-1.042-.455" transform="translate(-37.357 -11.493)" fill="#231815"/>
      </g>
    </g>
    <rect id="사각형_31064" data-name="사각형 31064" width="36" height="36" transform="translate(221 336)" fill="none"/>
  </g>
</svg>
