<svg xmlns="http://www.w3.org/2000/svg" xmlns:xlink="http://www.w3.org/1999/xlink" width="36" height="36" viewBox="0 0 36 36">
  <defs>
    <clipPath id="clip-path">
      <rect id="사각형_31068" data-name="사각형 31068" width="33.508" height="30.392" fill="none"/>
    </clipPath>
  </defs>
  <g id="그룹_89644" data-name="그룹 89644" transform="translate(-305 -339)">
    <rect id="사각형_31063" data-name="사각형 31063" width="36" height="36" transform="translate(305 339)" fill="none"/>
    <g id="그룹_89643" data-name="그룹 89643" transform="translate(306 342)">
      <g id="그룹_89642" data-name="그룹 89642" transform="translate(0 0)" clip-path="url(#clip-path)">
        <path id="패스_67390" data-name="패스 67390" d="M.62,30.874A.615.615,0,0,1,0,30.267c-.187-12.534,5.519-14.281,10.1-15.685,1.862-.571,3.471-1.063,4.429-2.192C17.9,8.432,16.478,2.071,16.463,2.008a.615.615,0,0,1,1.2-.277A17.342,17.342,0,0,1,18,5.757a11.854,11.854,0,0,1-2.523,7.429c-1.191,1.4-3.044,1.972-5.007,2.573-4.409,1.35-9.407,2.881-9.234,14.49a.616.616,0,0,1-.607.625Z" transform="translate(0 -0.868)" fill="#231815"/>
        <path id="패스_67391" data-name="패스 67391" d="M12.288,30.392a.615.615,0,0,1-.615-.592c-.033-.874-.12-5.3,1.413-6.507a1.541,1.541,0,0,1,1.422-.275,7.818,7.818,0,0,1,2.415,1.568c2.507,2.024,6.3,5.083,13.075,3.437,8.907-2.163,10.98-9.909,10.2-14.587-.751-4.506-4.758-7.621-8.929-6.944a.616.616,0,0,1-.712-.558,23.616,23.616,0,0,0-.99-5.1A.615.615,0,1,1,30.72.4a22.272,22.272,0,0,1,1,4.8,9.334,9.334,0,0,1,9.69,8.037c.856,5.132-1.4,13.624-11.124,15.986-7.37,1.79-11.608-1.631-14.139-3.676A7.6,7.6,0,0,0,14.179,24.2a.323.323,0,0,0-.329.054c-.773.611-1.019,3.581-.946,5.5a.616.616,0,0,1-.592.638h-.024" transform="translate(-8.071 0)" fill="#231815"/>
        <path id="패스_67392" data-name="패스 67392" d="M32.843,48.625a16.381,16.381,0,0,1-6.617,2.308c-3.539.308-1.022,4.051,1.748,6.513A12.1,12.1,0,0,0,44.23,56.418a8.34,8.34,0,0,0,2.616-4.561,5.657,5.657,0,0,0-6-.616c-3.232,1.693-8.31.308-8-2.616" transform="translate(-16.95 -33.66)" fill="#46e088"/>
        <path id="패스_67393" data-name="패스 67393" d="M36.931,24.889a.616.616,0,0,1-.616-.616V21.4a.616.616,0,0,1,1.231,0v2.876a.616.616,0,0,1-.616.616" transform="translate(-25.138 -14.386)" fill="#46e088"/>
        <path id="패스_67394" data-name="패스 67394" d="M35.374,25.787a.609.609,0,0,1-.307-.083l-2.49-1.438a.616.616,0,1,1,.616-1.066l2.49,1.438a.616.616,0,0,1-.308,1.149" transform="translate(-22.338 -16.003)" fill="#46e088"/>
        <path id="패스_67395" data-name="패스 67395" d="M32.885,25.787a.615.615,0,0,1-.308-1.149l2.49-1.438a.616.616,0,0,1,.616,1.066L33.193,25.7a.611.611,0,0,1-.307.083" transform="translate(-22.338 -16.003)" fill="#46e088"/>
        <path id="패스_67396" data-name="패스 67396" d="M88.931,41.389a.616.616,0,0,1-.616-.616V37.9a.616.616,0,0,1,1.231,0v2.876a.616.616,0,0,1-.616.616" transform="translate(-61.134 -25.808)" fill="#46e088"/>
        <path id="패스_67397" data-name="패스 67397" d="M87.374,42.287a.612.612,0,0,1-.307-.082l-2.49-1.438a.616.616,0,1,1,.616-1.066l2.49,1.438a.616.616,0,0,1-.308,1.149" transform="translate(-58.334 -27.425)" fill="#46e088"/>
        <path id="패스_67398" data-name="패스 67398" d="M84.885,42.287a.615.615,0,0,1-.308-1.149l2.49-1.438a.616.616,0,0,1,.616,1.066l-2.49,1.438a.614.614,0,0,1-.307.082" transform="translate(-58.334 -27.425)" fill="#46e088"/>
        <path id="패스_67399" data-name="패스 67399" d="M13.777,11.378a2.462,2.462,0,1,1,2.462-2.462,2.465,2.465,0,0,1-2.462,2.462m0-3.693a1.231,1.231,0,1,0,1.231,1.231,1.232,1.232,0,0,0-1.231-1.231" transform="translate(-7.833 -4.468)" fill="#46e088"/>
        <path id="패스_67400" data-name="패스 67400" d="M92.354,9.223a.769.769,0,1,0-.769.769.769.769,0,0,0,.769-.769" transform="translate(-62.865 -5.852)" fill="#46e088"/>
      </g>
    </g>
  </g>
</svg>
