<svg xmlns="http://www.w3.org/2000/svg" width="36" height="36" viewBox="0 0 36 36">
  <g id="그룹_89640" data-name="그룹 89640" transform="translate(-40 -265)">
    <g id="그룹_89624" data-name="그룹 89624" transform="translate(42 267)">
      <path id="패스_67303" data-name="패스 67303" d="M30.364,36.228a5.863,5.863,0,1,1,5.863-5.863,5.87,5.87,0,0,1-5.863,5.863m0-10.514a4.651,4.651,0,1,0,4.651,4.651,4.656,4.656,0,0,0-4.651-4.651" transform="translate(-17.075 -17.076)" fill="#231815"/>
      <path id="패스_67304" data-name="패스 67304" d="M38.826,4.367A2.183,2.183,0,1,1,41.01,2.184a2.186,2.186,0,0,1-2.183,2.183m0-3.154a.971.971,0,1,0,.971.971.972.972,0,0,0-.971-.971" transform="translate(-25.537 0)" fill="#231815"/>
      <path id="패스_67305" data-name="패스 67305" d="M38.826,77.653A2.183,2.183,0,1,1,41.01,75.47a2.186,2.186,0,0,1-2.183,2.183m0-3.154a.971.971,0,1,0,.971.971.972.972,0,0,0-.971-.971" transform="translate(-25.537 -51.075)" fill="#231815"/>
      <path id="패스_67306" data-name="패스 67306" d="M42.453,65.342a.606.606,0,0,1-.606-.606V61.318a.606.606,0,1,1,1.212,0v3.417a.606.606,0,0,1-.606.606" transform="translate(-29.164 -42.311)" fill="#231815"/>
      <path id="패스_67307" data-name="패스 67307" d="M42.453,16.34a.606.606,0,0,1-.606-.606V12.316a.606.606,0,1,1,1.212,0v3.417a.606.606,0,0,1-.606.606" transform="translate(-29.164 -8.161)" fill="#231815"/>
      <path id="패스_67308" data-name="패스 67308" d="M2.183,41.01a2.183,2.183,0,1,1,2.183-2.183A2.186,2.186,0,0,1,2.183,41.01m0-3.154a.971.971,0,1,0,.971.971.972.972,0,0,0-.971-.971" transform="translate(0 -25.538)" fill="#231815"/>
      <path id="패스_67309" data-name="패스 67309" d="M75.469,41.01a2.183,2.183,0,1,1,2.183-2.183,2.186,2.186,0,0,1-2.183,2.183m0-3.154a.971.971,0,1,0,.971.971.972.972,0,0,0-.971-.971" transform="translate(-51.075 -25.538)" fill="#231815"/>
      <path id="패스_67310" data-name="패스 67310" d="M64.734,43.06H61.317a.606.606,0,0,1,0-1.212h3.417a.606.606,0,1,1,0,1.212" transform="translate(-42.311 -29.165)" fill="#231815"/>
      <path id="패스_67311" data-name="패스 67311" d="M15.731,43.06H12.314a.606.606,0,0,1,0-1.212h3.417a.606.606,0,0,1,0,1.212" transform="translate(-8.16 -29.165)" fill="#231815"/>
      <path id="패스_67312" data-name="패스 67312" d="M64.737,15.1a2.184,2.184,0,1,1,1.544-.639,2.17,2.17,0,0,1-1.544.639m0-3.154a.971.971,0,0,0-.687,1.658,1,1,0,0,0,1.373,0,.971.971,0,0,0-.686-1.658" transform="translate(-43.595 -7.481)" fill="#231815"/>
      <path id="패스_67313" data-name="패스 67313" d="M12.916,66.921a2.184,2.184,0,1,1,1.544-.639,2.169,2.169,0,0,1-1.544.639m0-3.154a.971.971,0,0,0-.686,1.658.993.993,0,0,0,1.373,0,.971.971,0,0,0-.686-1.658" transform="translate(-7.48 -43.595)" fill="#231815"/>
      <path id="패스_67314" data-name="패스 67314" d="M21.142,58.814a.606.606,0,0,1-.429-1.035l2.416-2.417a.606.606,0,0,1,.857.857l-2.416,2.417a.6.6,0,0,1-.429.178" transform="translate(-14.312 -38.46)" fill="#231815"/>
      <path id="패스_67315" data-name="패스 67315" d="M55.791,24.166a.606.606,0,0,1-.429-1.035l2.416-2.416a.606.606,0,0,1,.857.857L56.22,23.988a.6.6,0,0,1-.429.178" transform="translate(-38.46 -14.313)" fill="#231815"/>
      <path id="패스_67316" data-name="패스 67316" d="M12.916,15.1a2.184,2.184,0,1,1,1.544-.639,2.17,2.17,0,0,1-1.544.639m0-3.154A.971.971,0,0,0,12.23,13.6a.993.993,0,0,0,1.373,0,.971.971,0,0,0-.686-1.658" transform="translate(-7.48 -7.481)" fill="#231815"/>
      <path id="패스_67317" data-name="패스 67317" d="M64.74,66.921a2.183,2.183,0,1,1,1.544-.639,2.169,2.169,0,0,1-1.544.639m0-3.154a.971.971,0,0,0-.687,1.658.994.994,0,0,0,1.373,0,.971.971,0,0,0-.686-1.658" transform="translate(-43.598 -43.595)" fill="#231815"/>
      <path id="패스_67318" data-name="패스 67318" d="M58.207,58.814a.6.6,0,0,1-.429-.178L55.362,56.22a.606.606,0,0,1,.857-.857l2.416,2.417a.606.606,0,0,1-.429,1.035" transform="translate(-38.459 -38.46)" fill="#231815"/>
      <path id="패스_67319" data-name="패스 67319" d="M23.559,24.166a.6.6,0,0,1-.429-.178l-2.416-2.416a.606.606,0,0,1,.857-.857l2.416,2.416a.606.606,0,0,1-.429,1.035" transform="translate(-14.312 -14.313)" fill="#231815"/>
      <path id="패스_67320" data-name="패스 67320" d="M49.147,58.195a9.046,9.046,0,0,1,0-18.092h0a9.046,9.046,0,0,1,0,18.092m0-15.364a6.319,6.319,0,1,0,4.468,1.851,6.275,6.275,0,0,0-4.468-1.851" transform="translate(-27.947 -27.949)" fill="#46e088"/>
      <path id="패스_67321" data-name="패스 67321" d="M88.181,90.962a2.76,2.76,0,0,1-1.966-.815l-2.87-2.87a.606.606,0,0,1,.857-.857l2.87,2.87a1.568,1.568,0,1,0,2.218-2.217L86.42,84.2a.606.606,0,0,1,.857-.857l2.87,2.87a2.78,2.78,0,0,1-1.966,4.746" transform="translate(-57.961 -57.962)" fill="#46e088"/>
      <rect id="사각형_31046" data-name="사각형 31046" width="33" height="33" transform="translate(0 0)" fill="none"/>
    </g>
    <rect id="사각형_31059" data-name="사각형 31059" width="36" height="36" transform="translate(40 265)" fill="none"/>
  </g>
</svg>
