<svg xmlns="http://www.w3.org/2000/svg" width="36" height="36" viewBox="0 0 36 36">
  <g id="그룹_89635" data-name="그룹 89635" transform="translate(-41 -336)">
    <g id="그룹_89621" data-name="그룹 89621" transform="translate(42 338)">
      <path id="패스_67333" data-name="패스 67333" d="M41.711,12.632a6.065,6.065,0,0,1-5.763-6.316A6.065,6.065,0,0,1,41.711,0a6.065,6.065,0,0,1,5.763,6.316,6.065,6.065,0,0,1-5.763,6.316m0-11.418a4.855,4.855,0,0,0-4.549,5.1,4.855,4.855,0,0,0,4.549,5.1,4.855,4.855,0,0,0,4.549-5.1,4.855,4.855,0,0,0-4.549-5.1" transform="translate(-25.042 0)" fill="#231815"/>
      <path id="패스_67334" data-name="패스 67334" d="M33.127,62.955a.607.607,0,0,1-.607-.607V52.035a6.908,6.908,0,0,0-6.9-6.9H9.12a6.908,6.908,0,0,0-6.9,6.9v5.806a.607.607,0,1,1-1.214,0V52.035A8.123,8.123,0,0,1,9.12,43.922h16.5a8.123,8.123,0,0,1,8.114,8.113V62.348a.607.607,0,0,1-.607.607" transform="translate(-0.7 -30.597)" fill="#231815"/>
      <path id="패스_67335" data-name="패스 67335" d="M40.824,87.313a.607.607,0,0,1,0-1.214,3,3,0,0,0,0-6H30.356a.607.607,0,0,1,0-1.214H40.824a4.213,4.213,0,0,1,0,8.425" transform="translate(-20.723 -54.955)" fill="#231815"/>
      <path id="패스_67336" data-name="패스 67336" d="M25.587,43.223s-7.061,11.828-7.362,18.629H6.808S2,62.3,2,56.973c0,0,5.859-9.019,19.53-13.307Z" transform="translate(-1.393 -30.11)" fill="#46e088"/>
      <path id="패스_67337" data-name="패스 67337" d="M5.148,61.074C2.659,61.074,0,59.631,0,55.58a.607.607,0,0,1,.1-.33C.342,54.873,6.234,46,19.955,41.694a.608.608,0,0,1,.116-.025l4.057-.443a.607.607,0,0,1,.587.914c-.07.117-6.986,11.776-7.277,18.345a.607.607,0,0,1-.606.58H5.438c-.048,0-.149.009-.29.009m-3.932-5.31c.086,3.693,2.768,4.1,3.932,4.1.124,0,.2-.006.213-.007l.054,0H16.265c.531-5.768,5.122-14.32,6.8-17.289l-2.806.307C7.935,46.754,2.037,54.6,1.216,55.765" transform="translate(0 -28.716)" fill="#46e088"/>
      <path id="패스_67338" data-name="패스 67338" d="M85.287,84.209a.607.607,0,0,1-.607-.607V75.039a.607.607,0,0,1,1.214,0V83.6a.607.607,0,0,1-.607.607" transform="translate(-58.989 -51.851)" fill="#231815"/>
      <path id="패스_67339" data-name="패스 67339" d="M36.966,80.1H25.893a.607.607,0,1,1,0-1.214H36.966a.607.607,0,1,1,0,1.214" transform="translate(-17.614 -54.955)" fill="#231815"/>
      <path id="패스_67340" data-name="패스 67340" d="M36.676,86.649a.6.6,0,0,1-.457-.207c-2.266-2.59-1.982-6.5-1.969-6.667a.607.607,0,0,1,1.21.1c0,.035-.253,3.573,1.672,5.772a.607.607,0,0,1-.456,1.006" transform="translate(-23.847 -55.183)" fill="#231815"/>
      <path id="패스_67341" data-name="패스 67341" d="M46.393,59.924a.607.607,0,0,1-.568-.82,27.354,27.354,0,0,1,5.6-8.711.607.607,0,0,1,.858.858,26.613,26.613,0,0,0-5.322,8.279.607.607,0,0,1-.568.393" transform="translate(-31.895 -34.982)" fill="#231815"/>
      <rect id="사각형_31048" data-name="사각형 31048" width="33.033" height="32.358" transform="translate(0 0)" fill="none"/>
    </g>
    <rect id="사각형_31066" data-name="사각형 31066" width="36" height="36" transform="translate(41 336)" fill="none"/>
  </g>
</svg>
