<svg xmlns="http://www.w3.org/2000/svg" width="36" height="36" viewBox="0 0 36 36">
  <g id="그룹_89638" data-name="그룹 89638" transform="translate(-222 -265)">
    <g id="그룹_89618" data-name="그룹 89618" transform="translate(225.999 267)">
      <path id="패스_67322" data-name="패스 67322" d="M70.57,70.159A.576.576,0,0,1,70,69.584V62.1a.575.575,0,0,1,1.151,0v7.481a.575.575,0,0,1-.575.575" transform="translate(-49.855 -43.824)" fill="#231815"/>
      <path id="패스_67323" data-name="패스 67323" d="M84.07,70.159a.576.576,0,0,1-.575-.575V62.1a.575.575,0,0,1,1.151,0v7.481a.575.575,0,0,1-.575.575" transform="translate(-59.47 -43.824)" fill="#231815"/>
      <path id="패스_67324" data-name="패스 67324" d="M4.79,31.332a13.319,13.319,0,0,1-4.406-.79.575.575,0,1,1,.382-1.086,10.089,10.089,0,0,0,8.328-.343,6.328,6.328,0,0,0,3.2-4.079A9.922,9.922,0,0,1,14.279,21.1a15.383,15.383,0,0,0,3.194-8.121,10.82,10.82,0,0,0-2.006-8.511A9.2,9.2,0,0,0,8.84,1.172a9.512,9.512,0,0,0-7.8,3.4.575.575,0,0,1-.925-.685A10.483,10.483,0,0,1,8.914.023a10.481,10.481,0,0,1,7.443,3.71,11.933,11.933,0,0,1,2.257,9.393,16.564,16.564,0,0,1-3.4,8.644,8.88,8.88,0,0,0-1.795,3.509,7.475,7.475,0,0,1-3.762,4.84A9.9,9.9,0,0,1,4.79,31.332" transform="translate(0.001 0)" fill="#231815"/>
      <path id="패스_67325" data-name="패스 67325" d="M8.093,37.444a5.088,5.088,0,0,1-2.34-.6A3.791,3.791,0,0,1,3.91,32.359a.577.577,0,0,1,.263-.333c1.566-.907,3.516-2.035,2.159-6.423-.916-2.965-.74-7.057,1.369-9.14.9-.887,2.522-1.766,5.152-.917,4.859,1.57,4.578,7.761,3.751,10.816a.575.575,0,0,1-1.111-.3c.021-.078,2.037-7.794-2.994-9.42a3.691,3.691,0,0,0-3.989.64c-1.549,1.529-2.012,4.96-1.078,7.981,1.449,4.689-.457,6.431-2.467,7.632a2.61,2.61,0,0,0,1.317,2.923,3.482,3.482,0,0,0,3,.235,3.269,3.269,0,0,0,1.806-2.219.576.576,0,1,1,1.105.321,4.44,4.44,0,0,1-2.458,2.956,4.147,4.147,0,0,1-1.64.333" transform="translate(-2.674 -10.828)" fill="#231815"/>
      <path id="패스_67326" data-name="패스 67326" d="M12.3,35.56a.575.575,0,0,1-.308-1.061,10.586,10.586,0,0,1,6.693-1.035.576.576,0,1,1-.149,1.141,9.661,9.661,0,0,0-5.933.869.574.574,0,0,1-.3.086" transform="translate(-8.351 -23.752)" fill="#231815"/>
      <path id="패스_67327" data-name="패스 67327" d="M13.8,45.226a.575.575,0,0,1-.39-1,4.424,4.424,0,0,1,3.3-.927.576.576,0,0,1-.109,1.146,3.273,3.273,0,0,0-2.414.633.578.578,0,0,1-.384.145" transform="translate(-9.422 -30.826)" fill="#231815"/>
      <path id="패스_67328" data-name="패스 67328" d="M10.493,76a.576.576,0,0,1-.446-.939c1.572-1.93.332-3.342.279-3.4a.575.575,0,0,1,.853-.772,3.7,3.7,0,0,1-.24,4.9.574.574,0,0,1-.446.212" transform="translate(-7.064 -50.358)" fill="#231815"/>
      <path id="패스_67329" data-name="패스 67329" d="M45.6,38.3A15.548,15.548,0,0,1,38,40.025q-.252,0-.5-.006v3.916q.249-.006.5-.006A15.548,15.548,0,0,1,45.6,45.658h7.287V38.3Z" transform="translate(-26.706 -27.277)" fill="#46e088"/>
      <path id="패스_67330" data-name="패스 67330" d="M51.464,44.809H44.178a.576.576,0,0,1-.292-.08,14.981,14.981,0,0,0-7.313-1.649q-.246,0-.488.006a.582.582,0,0,1-.415-.164.574.574,0,0,1-.174-.411V38.594a.574.574,0,0,1,.174-.411.581.581,0,0,1,.415-.164q.243.006.488.006a14.981,14.981,0,0,0,7.313-1.649.576.576,0,0,1,.292-.08h7.287a.576.576,0,0,1,.575.575v7.362a.576.576,0,0,1-.575.575m-7.133-1.151h6.557V37.447H44.332a16.287,16.287,0,0,1-7.686,1.729v2.753a16.291,16.291,0,0,1,7.686,1.729" transform="translate(-25.282 -25.852)" fill="#46e088"/>
      <path id="패스_67331" data-name="패스 67331" d="M68.936,93.927a.576.576,0,0,1-.575-.575V89.036H58.146v4.316a.575.575,0,1,1-1.151,0V88.46a.575.575,0,0,1,.575-.575H68.936a.575.575,0,0,1,.575.575v4.892a.575.575,0,0,1-.575.575" transform="translate(-40.595 -62.597)" fill="#231815"/>
      <path id="패스_67332" data-name="패스 67332" d="M62.57,47.454A.575.575,0,0,1,62,46.879V43.1a.575.575,0,1,1,1.151,0v3.777a.575.575,0,0,1-.575.575" transform="translate(-44.157 -30.29)" fill="#231815"/>
      <rect id="사각형_31047" data-name="사각형 31047" width="28.916" height="31.332" transform="translate(0 0)" fill="none"/>
    </g>
    <rect id="사각형_31061" data-name="사각형 31061" width="36" height="36" transform="translate(222 265)" fill="none"/>
  </g>
</svg>
