<svg xmlns="http://www.w3.org/2000/svg" width="36" height="36" viewBox="0 0 36 36">
  <g id="그룹_89637" data-name="그룹 89637" transform="translate(-131 -265)">
    <g id="그룹_89617" data-name="그룹 89617" transform="translate(132 266)">
      <path id="패스_67353" data-name="패스 67353" d="M45.029,57.234a2.813,2.813,0,1,1,2.813-2.813,2.816,2.816,0,0,1-2.813,2.813m0-4.34a1.527,1.527,0,1,0,1.527,1.527,1.529,1.529,0,0,0-1.527-1.527" transform="translate(-28.646 -35.019)" fill="#231815"/>
      <path id="패스_67354" data-name="패스 67354" d="M33.23,11.937c-4.925,0-6.525-3.4-7.812-6.125l-.137-.29a3.087,3.087,0,0,0-1.31-1.51.642.642,0,0,1-.1-1.081A13.953,13.953,0,0,1,38.011,1.167a.644.644,0,0,1,.385.6,35.833,35.833,0,0,0,.124,3.872,3.714,3.714,0,0,0,2.26,3.354.644.644,0,0,1,.031,1.214,9.5,9.5,0,0,1-3.348.65h0a7.958,7.958,0,0,1-5.01-1.785,5.485,5.485,0,0,0,1.927,1.6.643.643,0,0,1-.2,1.231c-.324.027-.643.041-.948.041m-7.867-8.5a5,5,0,0,1,1.081,1.536l.138.293c1.123,2.383,2.281,4.839,5.494,5.307a7.523,7.523,0,0,1-2.195-4.653.643.643,0,0,1,1.208-.369c.021.039,2.175,4.02,6.375,4.02h0A7.467,7.467,0,0,0,39.012,9.4a5.269,5.269,0,0,1-1.771-3.642c-.1-1.036-.144-2.238-.135-3.577A12.673,12.673,0,0,0,25.363,3.436" transform="translate(-16.027 0)" fill="#231815"/>
      <path id="패스_67355" data-name="패스 67355" d="M16.4,27.922A13.952,13.952,0,0,1,2.97,17.8a4.352,4.352,0,0,1-2.133-1.6,3.89,3.89,0,0,1,.585-5.448,3.346,3.346,0,0,1,1.541-.6,13.962,13.962,0,0,1,26.866,0,3.341,3.341,0,0,1,1.541.6,3.891,3.891,0,0,1,.585,5.448,4.354,4.354,0,0,1-2.133,1.6A13.952,13.952,0,0,1,16.4,27.922M3.415,11.412a2.107,2.107,0,0,0-1.242.389,2.611,2.611,0,0,0-.294,3.653,3.021,3.021,0,0,0,1.759,1.2.642.642,0,0,1,.479.467,12.679,12.679,0,0,0,24.556,0,.642.642,0,0,1,.479-.467,3.023,3.023,0,0,0,1.759-1.2,2.611,2.611,0,0,0-.294-3.653,2.108,2.108,0,0,0-1.243-.389h-.049a.642.642,0,0,1-.624-.489,12.676,12.676,0,0,0-24.612,0,.653.653,0,0,1-.635.489Z" transform="translate(0 0)" fill="#231815"/>
      <path id="패스_67356" data-name="패스 67356" d="M35.5,41.986a1.127,1.127,0,1,0-1.127,1.126A1.127,1.127,0,0,0,35.5,41.986" transform="translate(-22.56 -27.725)" fill="#231815"/>
      <path id="패스_67357" data-name="패스 67357" d="M64.008,41.986a1.127,1.127,0,1,0-1.127,1.126,1.126,1.126,0,0,0,1.127-1.126" transform="translate(-41.904 -27.725)" fill="#231815"/>
      <path id="패스_67358" data-name="패스 67358" d="M48.706,46.024a.64.64,0,0,1-.455-.188.56.56,0,0,0-.791,0,.643.643,0,0,1-.909-.909,1.847,1.847,0,0,1,2.609,0,.643.643,0,0,1-.455,1.1" transform="translate(-31.46 -30.119)" fill="#231815"/>
      <path id="패스_67359" data-name="패스 67359" d="M58.3,61.8c-1.355-.268-4.763-4.034-4.763-4.034a1.045,1.045,0,0,0-1.478,1.478S55.827,62.647,56.094,64c.21,1.062.145,1.828.957,2.641l5.895,5.894a2.751,2.751,0,0,0,3.89-3.891l-5.894-5.894c-.813-.813-1.579-.748-2.641-.958" transform="translate(-35.118 -38.986)" fill="#46e088"/>
      <path id="패스_67360" data-name="패스 67360" d="M63.542,72.629a3.373,3.373,0,0,1-2.4-.994L55.247,65.74a3.733,3.733,0,0,1-1.032-2.368c-.029-.191-.059-.391-.1-.6-.156-.789-2.336-3.055-3.835-4.411a1.7,1.7,0,0,1-.023-2.409,1.688,1.688,0,0,1,2.387,0c1.379,1.521,3.644,3.7,4.433,3.858.212.042.412.072.6.1a3.732,3.732,0,0,1,2.369,1.032l5.894,5.894a3.394,3.394,0,0,1-2.4,5.794M51.45,56.741a.4.4,0,0,0-.284.686c.632.571,3.916,3.6,4.21,5.093.046.231.079.45.111.658a2.484,2.484,0,0,0,.671,1.653l5.894,5.894a2.108,2.108,0,1,0,2.981-2.982L59.138,61.85a2.48,2.48,0,0,0-1.653-.67c-.208-.032-.426-.065-.657-.111-1.489-.294-4.522-3.578-5.116-4.233a.391.391,0,0,0-.262-.095" transform="translate(-33.768 -37.629)" fill="#46e088"/>
      <path id="패스_67361" data-name="패스 67361" d="M76.068,84.409a.64.64,0,0,1-.455-.188l-5.142-5.142a.643.643,0,0,1,0-.909l1.981-1.982a.662.662,0,0,1,.909,0L78.5,81.33a.643.643,0,0,1,0,.909L76.522,84.22a.64.64,0,0,1-.455.188m-4.232-5.784,4.232,4.233,1.072-1.073-4.232-4.233Z" transform="translate(-47.691 -51.575)" fill="#231815"/>
      <path id="패스_67362" data-name="패스 67362" d="M23.38,31.082a1.239,1.239,0,0,0,1.752-1.753l-.876-.876-.876.876a1.24,1.24,0,0,0,0,1.753" transform="translate(-15.618 -19.307)" fill="#46e088"/>
      <path id="패스_67363" data-name="패스 67363" d="M16.714,43.082a1.239,1.239,0,1,0,1.752-1.753l-.876-.876-.876.876a1.24,1.24,0,0,0,0,1.753" transform="translate(-11.095 -27.45)" fill="#46e088"/>
      <path id="패스_67364" data-name="패스 67364" d="M75.047,49.082A1.239,1.239,0,0,0,76.8,47.33l-.876-.876-.876.876a1.24,1.24,0,0,0,0,1.753" transform="translate(-50.677 -31.521)" fill="#46e088"/>
      <rect id="사각형_31052" data-name="사각형 31052" width="33.167" height="35" transform="translate(0 0)" fill="none"/>
    </g>
    <rect id="사각형_31060" data-name="사각형 31060" width="36" height="36" transform="translate(131 265)" fill="none"/>
  </g>
</svg>
