<svg xmlns="http://www.w3.org/2000/svg" width="18.809" height="23.261" viewBox="0 0 18.809 23.261">
  <g id="_015.할일" data-name="015.할일" transform="translate(0.5 0.5)">
    <path id="패스_66258" data-name="패스 66258" d="M19.583,2H6.226A2.226,2.226,0,0,0,4,4.226V22.035a2.226,2.226,0,0,0,2.226,2.226H19.583a2.226,2.226,0,0,0,2.226-2.226V4.226A2.226,2.226,0,0,0,19.583,2Z" transform="translate(-4 -2)" fill="none" stroke="#afafaf" stroke-linecap="round" stroke-linejoin="round" stroke-width="1"/>
    <path id="패스_66259" data-name="패스 66259" d="M11,8H6.557A.557.557,0,0,0,6,8.557V9.67a.557.557,0,0,0,.557.557H11a.557.557,0,0,0,.557-.557V8.557A.557.557,0,0,0,11,8Z" transform="translate(-3.774 -1.322)" fill="none" stroke="#afafaf" stroke-linecap="round" stroke-linejoin="round" stroke-width="1"/>
    <path id="패스_66260" data-name="패스 66260" d="M15.306,8.845l2.552-2.552,1.574,1.574-4.126,4.126L12.293,8.98l1.574-1.574Z" transform="translate(-3.063 -1.515)" fill="none" stroke="#afafaf" stroke-linecap="round" stroke-linejoin="round" stroke-width="1" fill-rule="evenodd"/>
    <path id="패스_66261" data-name="패스 66261" d="M15.306,14.845l2.552-2.552,1.574,1.574-4.126,4.126L12.293,14.98l1.574-1.574Z" transform="translate(-3.063 -0.837)" fill="none" stroke="#afafaf" stroke-linecap="round" stroke-linejoin="round" stroke-width="1" fill-rule="evenodd"/>
    <path id="패스_66262" data-name="패스 66262" d="M11.007,14H6.566a.557.557,0,0,0-.557.557V15.7a.557.557,0,0,0,.557.557h4.441a.557.557,0,0,0,.557-.557V14.557A.557.557,0,0,0,11.007,14Z" transform="translate(-3.773 -0.644)" fill="none" stroke="#afafaf" stroke-linecap="round" stroke-linejoin="round" stroke-width="1"/>
  </g>
</svg>
