<svg xmlns="http://www.w3.org/2000/svg" width="18.809" height="23.261" viewBox="0 0 18.809 23.261">
  <g id="_004.인사정보" data-name="004.인사정보" transform="translate(0.5 0.5)">
    <path id="패스_66216" data-name="패스 66216" d="M19.583,2H6.226A2.226,2.226,0,0,0,4,4.226V22.035a2.226,2.226,0,0,0,2.226,2.226H19.583a2.226,2.226,0,0,0,2.226-2.226V4.226A2.226,2.226,0,0,0,19.583,2Z" transform="translate(-4 -2)" fill="none" stroke="#afafaf" stroke-linecap="round" stroke-linejoin="round" stroke-width="1"/>
    <path id="패스_66217" data-name="패스 66217" d="M12.283,11.565A2.783,2.783,0,1,0,9.5,8.783,2.783,2.783,0,0,0,12.283,11.565Z" transform="translate(-3.378 -1.548)" fill="none" stroke="#afafaf" stroke-linecap="round" stroke-linejoin="round" stroke-width="1"/>
    <path id="패스_66218" data-name="패스 66218" d="M10.226,12h4.452A2.226,2.226,0,0,1,16.9,14.226v3.339a1.113,1.113,0,0,1-1.113,1.113H9.113A1.113,1.113,0,0,1,8,17.565V14.226A2.226,2.226,0,0,1,10.226,12Z" transform="translate(-3.548 -0.87)" fill="none" stroke="#afafaf" stroke-linecap="round" stroke-linejoin="round" stroke-width="1"/>
  </g>
</svg>
