<svg xmlns="http://www.w3.org/2000/svg" width="21.99" height="21.273" viewBox="0 0 21.99 21.273">
  <g id="_061.집_ᄌ_ᄐ_ᆨ근무" data-name="061.집,재택근무" transform="translate(-0.973 -1.227)">
    <path id="패스_68338" data-name="패스 68338" d="M21,12,12,4,3,12V22H21Z" fill="none" stroke="#afafaf" stroke-width="1"/>
    <path id="패스_68339" data-name="패스 68339" d="M10.65,2.22l-8.85,8a1,1,0,0,0-.06,1.42l.15.16a1,1,0,0,0,1.41.06l8-7.3a1,1,0,0,1,1.34,0l8,7.3a1,1,0,0,0,1.41-.06l.15-.16a1,1,0,0,0-.07-1.42l-8.85-8a2,2,0,0,0-2.63,0Z" fill="none" stroke="#afafaf" stroke-width="1"/>
    <path id="패스_68341" data-name="패스 68341" d="M18,13H14v4h4Z" fill="none" stroke="#afafaf" stroke-width="1"/>
  </g>
</svg>
