<svg xmlns="http://www.w3.org/2000/svg" width="24.432" height="23.261" viewBox="0 0 24.432 23.261">
  <g id="_064.병ᄋ_ᆫ" data-name="064.병원" transform="translate(0.5 0.5)">
    <path id="패스_66466" data-name="패스 66466" d="M3.2,12H24.291a1.172,1.172,0,0,1,1.172,1.172V23.716H2.03V13.172A1.172,1.172,0,0,1,3.2,12Z" transform="translate(-2.03 -1.455)" fill="#fff" stroke="#afafaf" stroke-linecap="round" stroke-linejoin="round" stroke-width="1"/>
    <path id="패스_66467" data-name="패스 66467" d="M6.2,3H20.261a1.172,1.172,0,0,1,1.172,1.172V25.261H5.03V4.172A1.172,1.172,0,0,1,6.2,3Z" transform="translate(-1.515 -3)" fill="#fafafa" stroke="#afafaf" stroke-linecap="round" stroke-linejoin="round" stroke-width="1"/>
    <path id="패스_66468" data-name="패스 66468" d="M11.1,12.75H9.347a.586.586,0,0,0-.586.586v1.757a.586.586,0,0,0,.586.586H11.1a.586.586,0,0,0,.586-.586V13.336A.586.586,0,0,0,11.1,12.75Z" transform="translate(-0.875 -1.327)" fill="none" stroke="#afafaf" stroke-linecap="round" stroke-linejoin="round" stroke-width="1"/>
    <path id="패스_66469" data-name="패스 66469" d="M15.1,12.75H13.347a.586.586,0,0,0-.586.586v1.757a.586.586,0,0,0,.586.586H15.1a.586.586,0,0,0,.586-.586V13.336A.586.586,0,0,0,15.1,12.75Z" transform="translate(-0.189 -1.327)" fill="none" stroke="#afafaf" stroke-linecap="round" stroke-linejoin="round" stroke-width="1"/>
    <path id="패스_66470" data-name="패스 66470" d="M11.1,16.75H9.347a.586.586,0,0,0-.586.586v1.757a.586.586,0,0,0,.586.586H11.1a.586.586,0,0,0,.586-.586V17.336A.586.586,0,0,0,11.1,16.75Z" transform="translate(-0.875 -0.64)" fill="none" stroke="#afafaf" stroke-linecap="round" stroke-linejoin="round" stroke-width="1"/>
    <path id="패스_66471" data-name="패스 66471" d="M15.1,16.75H13.347a.586.586,0,0,0-.586.586v1.757a.586.586,0,0,0,.586.586H15.1a.586.586,0,0,0,.586-.586V17.336A.586.586,0,0,0,15.1,16.75Z" transform="translate(-0.189 -0.64)" fill="none" stroke="#afafaf" stroke-linecap="round" stroke-linejoin="round" stroke-width="1"/>
    <path id="패스_66472" data-name="패스 66472" d="M11.354,7.343V5H13.7V7.343H16.04V9.686H13.7V12.03H11.354V9.686H9.011V7.343Z" transform="translate(-0.832 -2.657)" fill="none" stroke="#afafaf" stroke-linecap="round" stroke-linejoin="round" stroke-width="1"/>
  </g>
</svg>
